<svg xmlns="http://www.w3.org/2000/svg" xmlns:xlink="http://www.w3.org/1999/xlink" version="1.1" x="0px" y="0px" viewBox="0 0 73 91.25" style="enable-background:new 0 0 73 73;" xml:space="preserve"><g><path d="M8.63169,66.2056351c1.533392,0.8855896,4.0586615,2.8242188,4.6005859,2.8242188   c0.2445593,0,0.4602365-0.1079788,0.62854-0.3381348c0.6132813,0.0817871,1.281189-0.0646973,1.8217163-0.3818359   c1.3198633-0.7743301,1.2701674-1.1654816,8.6130972-11.4641151l0.0010376,0.0175781   c3.4464111-0.3349609,6.9240112-0.6699219,10.3635883-0.270752c3.4395142,0.3991699,6.8845825,1.5952148,9.4116211,3.9624023   c1.2861938,1.204834,2.3386841,2.7080078,3.8815308,3.5596962c1.1114502,0.6135254,2.6176147,0.7055664,3.6725464,0.1263428   c1.0258598-0.0686569,1.8165359-0.7235947,2.1151123-1.6115761c1.0238075-3.0313759,2.2198906-5.3176346,3.3066406-8.0859375   c0.2119141-0.5429688,0.7255859-0.8945313,1.3085938-0.8945313c4.2451172,0,7.6987305-3.4541016,7.6987305-7.6992188V19.7573891   c0-3.0498047-2.480957-5.5302725-5.5307617-5.5302725h-4.1212769c1.0726318-1.3491211,2.1438599-2.7038574,3.2190552-4.0421143   c-0.2956543-0.7451172-0.3983154-1.565918-0.295105-2.3609624c-0.1026649,0.1337628-0.2428703,0.3167272-0.1410522,0.1823735   c0.2711639-0.3560944,0.1692429-0.8719106-0.2167969-1.0986333c-1.6162071-0.9536991-2.984024-1.8397884-4.6699219-2.8339844   c-0.3295898-0.1943359-0.7543945-0.1083984-0.9833984,0.1992188l-7.3604126,9.9541016H14.241065   c-1.0250854,0-1.9827271,0.28479-2.8071899,0.7719727c-1.4487915,0.4572754-2.638916,1.6882315-3.3025513,3.2084951   c-0.7871709,1.8034668-0.8826909,3.8220215-0.9548955,5.7883301C6.8607545,32.5945473,6.7693849,41.2195473,7.5482545,49.788517   c0.4275522,4.7030754,1.808311,6.8109131,7.0355229,6.9597168l-6.1801147,8.3616982   C8.138298,65.4691925,8.2427149,65.9818954,8.63169,66.2056351z M60.5242691,15.7271166   c2.2226563,0,4.0307617,1.8076162,4.0307617,4.0302725v26.1923828c0,3.4179688-2.7807617,6.1992188-6.1987305,6.1992188   c-1.2055664,0-2.2675781,0.7255859-2.7055664,1.8476563c-0.4204102,1.0703125-0.855957,2.0654297-1.2919922,3.0605469   c-0.6850586,1.5644531-1.3935547,3.1826172-2.0390625,5.0927734c-0.1864204,0.5562363-0.884079,0.7946854-1.3857422,0.4228516   l-9.8037109-7.2226563c-1.6259766-1.1962891-3.5512695-1.8291016-5.5678711-1.8291016h-8.8870869   c2.0135498-2.7995605,4.0405273-5.5961914,6.0899677-8.3847656h6.7404785c0.4140625,0,0.75-0.3359375,0.75-0.75   s-0.3359375-0.75-0.75-0.75h-5.631958c1.7441406-2.3642578,3.4991455-4.7216797,5.2645874-7.0722656h4.7345581   c0.4140625,0,0.75-0.3359375,0.75-0.75s-0.3359375-0.75-0.75-0.75h-3.6013794   c1.8693848-2.4796143,3.74823-4.947998,5.6365967-7.40625h8.5648804c0.4140625,0,0.75-0.3359375,0.75-0.75   s-0.3359375-0.75-0.75-0.75h-7.4116211c2.7023315-3.5046387,5.4179688-6.984375,8.1470947-10.4306631H60.5242691z    M14.241065,53.5210609c-2.2280273,0-4.0405273-1.8125-4.0405273-4.0410156V19.7671547   c0-2.2275391,1.8125-4.0400381,4.0405273-4.0400381h30.6103516c-3.6974678,5.0110464-5.6216278,7.6168394-7.690979,10.4306631   H20.8470211c-0.4140625,0-0.75,0.3359375-0.75,0.75s0.3359375,0.75,0.75,0.75h15.2059345   c-0.074646,0.1010113-4.9812298,6.7454872-5.4677753,7.40625h-7.7205811c-0.4140625,0-0.75,0.3359375-0.75,0.75   s0.3359375,0.75,0.75,0.75h6.612793C12.331481,59.8020515,18.2455177,51.7875175,16.9657955,53.5210609h-0.1204224   c0.0321655-0.0722656,0.0643311-0.1446533,0.0964966-0.217041c-0.09021,0.0839844-0.1947632,0.1442871-0.2918701,0.217041   H14.241065z M54.1180191,5.7105145c1.1987267,0.7217946,2.1199036,1.305213,3.3662109,2.0576172   C44.6650276,24.6672325,34.4110794,38.4186821,25.0770016,50.9175453l0.0019531,0.0019531   c-0.6296654,0.8115692-8.3757076,11.3174171-12.046874,16.3613319c-0.8637753-0.5402985-2.005167-1.3407059-2.9365234-1.9365234   C10.8511982,64.3205032,34.4338112,32.3656502,54.1180191,5.7105145z"/></g><text x="0" y="88" fill="#000000" font-size="5px" font-weight="bold" font-family="'Helvetica Neue', Helvetica, Arial-Unicode, Arial, Sans-serif">Created by Smashing Stocks</text><text x="0" y="93" fill="#000000" font-size="5px" font-weight="bold" font-family="'Helvetica Neue', Helvetica, Arial-Unicode, Arial, Sans-serif">from the Noun Project</text></svg>